<svg width="386" height="387" viewBox="0 0 386 387" fill="none" xmlns="http://www.w3.org/2000/svg">
<path d="M1.02576e-05 235.334L9.51502 225.386L86.7679 148.665L96.2829 138.717L110.102 124.925L142.046 93.4977L149.824 85.7351L159.339 91.7643C159.339 91.7643 172.327 100.205 186.524 106.837C193.623 110.153 201.175 113.168 206.385 114.148C208.953 114.6 210.539 114.675 211.143 114.6C212.351 113.093 226.774 94.9296 244.37 73.2245C262.72 50.6151 282.052 26.5737 291.869 16.7763C313.391 -4.70274 348.582 -4.70274 370.028 16.7762C391.399 38.1045 391.248 72.9231 370.028 94.3267L370.028 94.7789C360.136 104.652 336.424 124.397 313.92 142.636C291.869 160.422 273.141 175.419 272.009 176.248C272.084 176.173 271.178 176.851 272.009 181.825C272.839 186.799 275.482 193.959 278.881 200.817C285.752 214.534 294.89 227.12 294.89 227.12L301.762 236.616L293.531 244.83L262.04 276.71L248.221 290.501L238.253 299.997L161.378 377.171L151.41 386.667L141.668 377.096L9.51502 245.207L1.02576e-05 235.334ZM72.1178 253.422C72.3443 256.06 73.326 258.095 75.1384 259.903C82.2369 266.988 109.951 256.663 121.807 251.689C133.663 246.715 142.952 248.297 149.446 254.703C160.547 265.631 134.494 294.571 146.879 306.856C159.263 319.065 185.543 296.832 193.547 304.67L194.001 305.122L218.619 280.553L106.251 168.486L87.221 187.478L88.0516 188.307C97.4911 197.652 88.5047 216.945 83.2941 224.934C77.2529 234.43 71.4381 245.584 72.1178 253.422ZM126.112 148.665L238.404 260.732L242.255 256.889L266.42 233.149C262.72 227.798 259.699 224.105 254.338 213.328C250.26 205.113 246.484 196.145 244.823 186.573C243.161 177.002 243.615 164.944 252.148 156.427L252.979 155.975L253.432 155.523C253.432 155.523 274.123 139.244 296.627 121.081C319.131 102.918 344.202 81.7408 350.621 75.4101C361.495 64.5576 361.495 47.5251 350.621 36.5972C339.746 25.7447 322.68 25.7447 311.73 36.5972C305.387 42.9279 284.167 68.0244 265.967 90.4831C247.692 112.942 231.456 133.592 231.456 133.592L231.003 134.044L230.55 134.873C221.866 143.615 210.312 143.088 201.175 141.354C192.037 139.621 183.126 135.777 174.819 131.858C163.568 126.658 159.49 123.568 154.128 120.252L129.963 144.821L126.112 148.665ZM312.636 59.5081C312.636 51.1426 319.357 44.4352 327.739 44.4352C336.122 44.4352 342.843 51.1426 342.843 59.5081C342.843 67.8736 336.122 74.5811 327.739 74.5811C319.357 74.5811 312.636 67.7983 312.636 59.5081Z" fill="black"/>
<path fill-rule="evenodd" clip-rule="evenodd" d="M126.112 148.665L238.404 260.732L242.255 256.889L266.42 233.149C262.72 227.798 259.699 224.105 254.338 213.328C250.26 205.113 246.484 196.145 244.823 186.573C243.161 177.002 243.615 164.944 252.148 156.427L252.979 155.975L253.432 155.523C253.432 155.523 274.123 139.244 296.627 121.081C319.131 102.918 344.202 81.7408 350.621 75.4101C361.495 64.5576 361.495 47.5251 350.621 36.5972C339.746 25.7447 322.68 25.7447 311.73 36.5972C305.387 42.9279 284.167 68.0244 265.967 90.4831C247.692 112.942 231.456 133.592 231.456 133.592L231.003 134.044L230.55 134.873C221.866 143.615 210.312 143.088 201.175 141.354C192.037 139.621 183.126 135.777 174.819 131.858C163.568 126.658 159.49 123.568 154.128 120.252L129.963 144.821L126.112 148.665ZM327.739 44.4352C319.357 44.4352 312.636 51.1426 312.636 59.5081C312.636 67.7983 319.357 74.5811 327.739 74.5811C336.122 74.5811 342.843 67.8736 342.843 59.5081C342.843 51.1426 336.122 44.4352 327.739 44.4352Z" fill="#989898"/>
<path d="M72.1178 253.422C72.3443 256.06 73.326 258.095 75.1384 259.903C82.2369 266.988 109.951 256.663 121.807 251.689C133.663 246.715 142.952 248.297 149.446 254.703C160.547 265.631 134.494 294.571 146.879 306.856C159.263 319.065 185.543 296.832 193.547 304.67L194.001 305.122L218.619 280.553L106.251 168.486L87.221 187.478L88.0516 188.307C97.4911 197.652 88.5047 216.945 83.2941 224.934C77.2529 234.43 71.4381 245.584 72.1178 253.422Z" fill="#989898"/>
</svg>
