<svg width="386" height="387" viewBox="0 0 386 387" fill="none" xmlns="http://www.w3.org/2000/svg">
<path d="M386 235.334L376.485 225.386L299.232 148.665L289.717 138.717L275.898 124.925L243.954 93.4977L236.176 85.7351L226.661 91.7643C226.661 91.7643 213.673 100.205 199.476 106.837C192.377 110.153 184.825 113.168 179.615 114.148C177.047 114.6 175.461 114.675 174.857 114.6C173.649 113.093 159.226 94.9296 141.63 73.2245C123.28 50.6151 103.948 26.5737 94.1307 16.7763C72.6087 -4.70274 37.4182 -4.70274 15.9717 16.7762C-5.39932 38.1045 -5.24829 72.9231 15.9717 94.3267L15.9717 94.7789C25.8643 104.652 49.5763 124.397 72.0801 142.636C94.1307 160.422 112.859 175.419 113.991 176.248C113.916 176.173 114.822 176.851 113.991 181.825C113.161 186.799 110.518 193.959 107.119 200.817C100.248 214.534 91.1101 227.12 91.1101 227.12L84.2381 236.616L92.4694 244.83L123.96 276.71L137.779 290.501L147.747 299.997L224.622 377.171L234.59 386.667L244.332 377.096L376.485 245.207L386 235.334ZM313.882 253.422C313.656 256.06 312.674 258.095 310.862 259.903C303.763 266.988 276.049 256.663 264.193 251.689C252.337 246.715 243.048 248.297 236.554 254.703C225.453 265.631 251.506 294.571 239.121 306.856C226.737 319.065 200.457 296.832 192.453 304.67L191.999 305.122L167.381 280.553L279.749 168.486L298.779 187.478L297.948 188.307C288.509 197.652 297.495 216.945 302.706 224.934C308.747 234.43 314.562 245.584 313.882 253.422ZM259.888 148.665L147.596 260.732L143.745 256.889L119.58 233.149C123.28 227.798 126.301 224.105 131.662 213.328C135.74 205.113 139.516 196.145 141.177 186.573C142.839 177.002 142.385 164.944 133.852 156.427L133.021 155.975L132.568 155.523C132.568 155.523 111.877 139.244 89.3732 121.081C66.8695 102.918 41.7981 81.7408 35.3793 75.4101C24.505 64.5576 24.505 47.5251 35.3793 36.5972C46.2536 25.7447 63.3202 25.7447 74.27 36.5972C80.6134 42.9279 101.833 68.0244 120.033 90.4831C138.308 112.942 154.544 133.592 154.544 133.592L154.997 134.044L155.45 134.873C164.134 143.615 175.688 143.088 184.825 141.354C193.963 139.621 202.874 135.777 211.181 131.858C222.432 126.658 226.51 123.568 231.872 120.252L256.037 144.821L259.888 148.665ZM73.3638 59.5081C73.3638 51.1426 66.6429 44.4352 58.2606 44.4352C49.8784 44.4352 43.1575 51.1426 43.1575 59.5081C43.1575 67.8736 49.8784 74.5811 58.2606 74.5811C66.6429 74.5811 73.3638 67.7983 73.3638 59.5081Z" fill="black"/>
<path fill-rule="evenodd" clip-rule="evenodd" d="M259.888 148.665L147.596 260.732L143.745 256.889L119.58 233.149C123.28 227.798 126.301 224.105 131.662 213.328C135.74 205.113 139.516 196.145 141.177 186.573C142.839 177.002 142.385 164.944 133.852 156.427L133.021 155.975L132.568 155.523C132.568 155.523 111.877 139.244 89.3732 121.081C66.8695 102.918 41.7981 81.7408 35.3793 75.4101C24.505 64.5576 24.505 47.5251 35.3793 36.5972C46.2536 25.7447 63.3202 25.7447 74.27 36.5972C80.6134 42.9279 101.833 68.0244 120.033 90.4831C138.308 112.942 154.544 133.592 154.544 133.592L154.997 134.044L155.45 134.873C164.134 143.615 175.688 143.088 184.825 141.354C193.963 139.621 202.874 135.777 211.181 131.858C222.432 126.658 226.51 123.568 231.872 120.252L256.037 144.821L259.888 148.665ZM58.2606 44.4352C66.6429 44.4352 73.3638 51.1426 73.3638 59.5081C73.3638 67.7983 66.6429 74.5811 58.2606 74.5811C49.8784 74.5811 43.1575 67.8736 43.1575 59.5081C43.1575 51.1426 49.8784 44.4352 58.2606 44.4352Z" fill="#989898"/>
<path d="M313.882 253.422C313.656 256.06 312.674 258.095 310.862 259.903C303.763 266.988 276.049 256.663 264.193 251.689C252.337 246.715 243.048 248.297 236.554 254.703C225.453 265.631 251.506 294.571 239.121 306.856C226.737 319.065 200.457 296.832 192.453 304.67L191.999 305.122L167.381 280.553L279.749 168.486L298.779 187.478L297.948 188.307C288.509 197.652 297.495 216.945 302.706 224.934C308.747 234.43 314.562 245.584 313.882 253.422Z" fill="#989898"/>
</svg>
