<svg width="313" height="386" viewBox="0 0 313 386" fill="none" xmlns="http://www.w3.org/2000/svg">
<path d="M166.011 370.732L163.502 368.292L166.011 370.732C169.309 367.34 248.796 285.526 276.208 250.957C297.743 223.802 309.13 191.055 309.13 156.297C309.13 72.041 240.589 3.5 156.333 3.5C72.077 3.5 3.536 72.041 3.536 156.297C3.536 191.054 14.9338 223.812 36.4868 250.987C63.8948 285.544 143.354 367.337 146.653 370.731C146.653 370.731 146.653 370.731 146.654 370.731L153.822 378.106L156.332 380.687L158.841 378.106L166.011 370.732ZM255.053 234.18C234.061 260.652 178.844 318.508 156.333 341.891C133.825 318.51 78.6284 260.671 57.6412 234.209C39.9053 211.846 30.536 184.919 30.536 156.297C30.536 86.935 86.971 30.5 156.333 30.5C225.694 30.5 282.13 86.935 282.129 156.297C282.129 184.923 272.769 211.839 255.053 234.18Z" fill="black" stroke="black" stroke-width="7"/>
<path d="M156.333 62.765C105.67 62.765 64.459 103.976 64.459 154.639C64.459 205.302 105.671 246.513 156.333 246.513C206.995 246.513 248.207 205.301 248.207 154.639C248.207 103.977 206.996 62.765 156.333 62.765ZM156.333 219.513C120.564 219.513 91.459 190.407 91.459 154.639C91.459 118.87 120.565 89.765 156.333 89.765C192.101 89.765 221.206 118.871 221.207 154.639C221.207 190.408 192.102 219.513 156.333 219.513Z" fill="black" stroke="black" stroke-width="7"/>
<mask id="path-3-outside-1_1_39" maskUnits="userSpaceOnUse" x="20.036" y="20" width="273" height="338" fill="black">
<rect fill="white" x="20.036" y="20" width="273" height="338"/>
<path fill-rule="evenodd" clip-rule="evenodd" d="M257.795 236.355C235.839 264.042 176.875 325.633 156.333 346.936C135.793 325.634 76.85 264.061 54.899 236.384C36.671 213.4 27.036 185.707 27.036 156.297C27.036 85.002 85.038 27 156.333 27C227.627 27 285.63 85.002 285.629 156.297C285.629 185.709 276.004 213.393 257.795 236.355ZM156.333 66.265C107.603 66.265 67.959 105.909 67.959 154.639C67.959 203.369 107.604 243.013 156.333 243.013C205.062 243.013 244.707 203.368 244.707 154.639C244.707 105.91 205.063 66.265 156.333 66.265Z"/>
</mask>
<path fill-rule="evenodd" clip-rule="evenodd" d="M257.795 236.355C235.839 264.042 176.875 325.633 156.333 346.936C135.793 325.634 76.85 264.061 54.899 236.384C36.671 213.4 27.036 185.707 27.036 156.297C27.036 85.002 85.038 27 156.333 27C227.627 27 285.63 85.002 285.629 156.297C285.629 185.709 276.004 213.393 257.795 236.355ZM156.333 66.265C107.603 66.265 67.959 105.909 67.959 154.639C67.959 203.369 107.604 243.013 156.333 243.013C205.062 243.013 244.707 203.368 244.707 154.639C244.707 105.91 205.063 66.265 156.333 66.265Z" fill="#989898"/>
<path d="M156.333 346.936L151.294 351.795L156.333 357.021L161.372 351.795L156.333 346.936ZM257.795 236.355L263.28 240.704L263.28 240.704L257.795 236.355ZM54.899 236.384L49.4144 240.734L49.4145 240.734L54.899 236.384ZM285.629 156.297L278.629 156.297V156.297H285.629ZM161.372 351.795C181.802 330.607 241.061 268.723 263.28 240.704L252.31 232.006C230.617 259.361 171.947 320.659 151.294 342.077L161.372 351.795ZM49.4145 240.734C71.6285 268.742 130.865 330.608 151.294 351.795L161.372 342.077C140.721 320.66 82.0715 259.38 60.3835 232.034L49.4145 240.734ZM20.036 156.297C20.036 187.282 30.2024 216.509 49.4144 240.734L60.3836 232.034C43.1396 210.291 34.036 184.132 34.036 156.297H20.036ZM156.333 20C81.172 20 20.036 81.136 20.036 156.297H34.036C34.036 88.868 88.904 34 156.333 34V20ZM292.629 156.297C292.63 81.136 231.493 20 156.333 20V34C223.761 34 278.63 88.868 278.629 156.297L292.629 156.297ZM263.28 240.704C282.474 216.5 292.629 187.282 292.629 156.297H278.629C278.629 184.136 269.534 210.286 252.31 232.006L263.28 240.704ZM74.959 154.639C74.959 109.775 111.469 73.265 156.333 73.265V59.265C103.737 59.265 60.959 102.043 60.959 154.639H74.959ZM156.333 236.013C111.47 236.013 74.959 199.503 74.959 154.639H60.959C60.959 207.235 103.738 250.013 156.333 250.013V236.013ZM237.707 154.639C237.707 199.502 201.196 236.013 156.333 236.013V250.013C208.928 250.013 251.707 207.234 251.707 154.639H237.707ZM156.333 73.265C201.197 73.265 237.707 109.776 237.707 154.639H251.707C251.707 102.044 208.929 59.265 156.333 59.265V73.265Z" fill="black" mask="url(#path-3-outside-1_1_39)"/>
</svg>
